HIERARCHY
ROOT Hips
{
	OFFSET -0.001795 -0.223333 0.028219
	CHANNELS 6 Xposition Yposition Zposition Zrotation Yrotation Xrotation 
	JOINT LeftUpLeg
	{
		OFFSET 0.069520 -0.091406 -0.006815
		CHANNELS 3 Zrotation Yrotation Xrotation
		JOINT LeftLeg
		{
			OFFSET 0.034277 -0.375199 -0.004496
			CHANNELS 3 Zrotation Yrotation Xrotation
			JOINT LeftFoot
			{
				OFFSET -0.013596 -0.397961 -0.043693
				CHANNELS 3 Zrotation Yrotation Xrotation
				JOINT LeftToe
				{
					OFFSET 0.026358 -0.055791 0.119288
					CHANNELS 3 Zrotation Yrotation Xrotation
					End Site
					{
						OFFSET 0.000000 0.000000 0.000000
					}
				}
			}
		}
	}
	JOINT RightUpLeg
	{
		OFFSET -0.067670 -0.090522 -0.004320
		CHANNELS 3 Zrotation Yrotation Xrotation
		JOINT RightLeg
		{
			OFFSET -0.038290 -0.382569 -0.008850
			CHANNELS 3 Zrotation Yrotation Xrotation
			JOINT RightFoot
			{
				OFFSET 0.015774 -0.398415 -0.042312
				CHANNELS 3 Zrotation Yrotation Xrotation
				JOINT RightToe
				{
					OFFSET -0.025372 -0.048144 0.123348
					CHANNELS 3 Zrotation Yrotation Xrotation
					End Site
					{
						OFFSET 0.000000 0.000000 0.000000
					}
				}
			}
		}
	}
	JOINT Spine
	{
		OFFSET -0.002533 0.108963 -0.026696
		CHANNELS 3 Zrotation Yrotation Xrotation
		JOINT Spine1
		{
			OFFSET 0.005487 0.135180 0.001092
			CHANNELS 3 Zrotation Yrotation Xrotation
			JOINT Spine2
			{
				OFFSET 0.001457 0.052922 0.025425
				CHANNELS 3 Zrotation Yrotation Xrotation
				JOINT Neck
				{
					OFFSET -0.002778 0.213870 -0.042857
					CHANNELS 3 Zrotation Yrotation Xrotation
					JOINT Head
					{
						OFFSET 0.005152 0.064970 0.051349
						CHANNELS 3 Zrotation Yrotation Xrotation
						End Site
						{
							OFFSET 0.000000 0.000000 0.000000
						}
					}
				}
				JOINT LeftShoulder
				{
					OFFSET 0.078845 0.121749 -0.034090
					CHANNELS 3 Zrotation Yrotation Xrotation
					JOINT LeftArm
					{
						OFFSET 0.090977 0.030469 -0.008868
						CHANNELS 3 Zrotation Yrotation Xrotation
						JOINT LeftForeArm
						{
							OFFSET 0.259612 -0.012772 -0.027456
							CHANNELS 3 Zrotation Yrotation Xrotation
							JOINT LeftHand
							{
								OFFSET 0.249234 0.008986 -0.001171
								CHANNELS 3 Zrotation Yrotation Xrotation
								End Site
								{
									OFFSET 0.000000 0.000000 0.000000
								}
							}
						}
					}
				}
				JOINT RightShoulder
				{
					OFFSET -0.081759 0.118833 -0.038615
					CHANNELS 3 Zrotation Yrotation Xrotation
					JOINT RightArm
					{
						OFFSET -0.096012 0.032551 -0.009143
						CHANNELS 3 Zrotation Yrotation Xrotation
						JOINT RightForeArm
						{
							OFFSET -0.253742 -0.013329 -0.021401
							CHANNELS 3 Zrotation Yrotation Xrotation
							JOINT RightHand
							{
								OFFSET -0.255298 0.007772 -0.005559
								CHANNELS 3 Zrotation Yrotation Xrotation
								End Site
								{
									OFFSET 0.000000 0.000000 0.000000
								}
							}
						}
					}
				}
			}
		}
	}
}
MOTION
Frames: 10
Frame Time: 0.050000
0.000000 0.907892 0.000000 -0.248092 -13.971979 5.541347 10.391441 1.038345 -26.455557 -5.701437 1.403238 13.625176 8.182683 16.157056 17.447729 0.000000 0.000000 0.000000 -7.085206 0.461625 2.384360 3.353735 0.173156 13.320638 -1.797348 -2.424733 -2.951896 0.000000 0.000000 0.000000 2.555020 -0.798295 18.954750 -5.150280 1.612756 -25.218543 0.779286 12.060696 28.187971 10.218284 -2.826332 -31.153879 0.000000 0.000000 0.000000 -15.751463 -8.301912 2.725963 -39.127965 -9.786614 -3.478785 -16.733171 -31.368303 5.924416 0.000000 0.000000 0.000000 26.251491 -0.405244 -0.621850 47.118948 17.991648 -0.497025 12.483231 37.091264 6.269851 0.000000 0.000000 0.000000 
0.013727 0.909489 0.026994 -1.235425 -14.546289 5.398656 9.949569 0.983839 -26.558779 -5.310579 1.579230 17.512530 8.685212 16.931031 14.847596 0.000000 0.000000 0.000000 -7.604947 0.536105 1.360281 4.144911 0.282786 18.147035 -1.427617 -3.694176 0.436167 0.000000 0.000000 0.000000 2.883347 -0.859543 19.926099 -5.453692 1.674443 -23.990589 0.277297 8.685408 26.488868 9.553965 -3.374065 -28.842198 0.000000 0.000000 0.000000 -15.988507 -8.690159 3.712584 -38.320083 -11.407078 -3.074627 -11.727917 -32.351385 4.874342 0.000000 0.000000 0.000000 26.098496 -0.143672 -1.839871 47.664986 14.677322 -1.211077 14.836533 36.809154 6.548254 0.000000 0.000000 0.000000 
0.026858 0.912445 0.053683 -0.930567 -16.104557 4.128276 9.601080 0.901757 -24.599401 -7.208803 2.479188 19.538100 9.557096 18.221621 13.590805 0.000000 0.000000 0.000000 -10.668592 0.846449 -1.517624 7.808028 -0.170624 25.850349 -1.969555 -8.422034 7.421304 0.000000 0.000000 0.000000 1.194982 -0.452733 20.479646 -3.916404 1.279242 -24.192829 -0.448909 6.820612 28.877230 7.845976 -2.873098 -29.633297 0.000000 0.000000 0.000000 -16.497474 -10.678256 5.502480 -36.198971 -14.953410 -2.402701 -8.885145 -34.214026 4.439708 0.000000 0.000000 0.000000 25.504570 1.882428 -1.416811 47.620182 13.148661 -1.789153 14.837944 36.093463 6.142790 0.000000 0.000000 0.000000 
0.038678 0.917187 0.079084 -1.410944 -17.288085 3.888743 9.577461 0.843997 -22.408374 -8.304368 2.932986 19.312111 10.204373 19.235978 12.746723 0.000000 0.000000 0.000000 -11.110498 0.908506 -5.273468 8.818544 -0.090053 30.890528 -4.221846 -15.085234 15.878334 0.000000 0.000000 0.000000 1.397773 -0.422023 21.767208 -4.719309 1.461346 -23.971132 -0.580623 4.397714 27.755114 6.478176 -2.703057 -28.663338 0.000000 0.000000 0.000000 -14.817516 -11.028095 6.084603 -34.580715 -17.122401 -1.798973 -7.266352 -39.420340 4.835936 0.000000 0.000000 0.000000 25.503953 0.823205 -3.204803 48.061470 10.041293 -2.557643 18.611510 34.325353 6.597747 0.000000 0.000000 0.000000 
0.049215 0.919586 0.103391 -1.776898 -18.410874 3.377104 8.700397 0.553122 -19.367367 -8.174884 2.837401 17.985714 10.949795 20.595164 11.068672 0.000000 0.000000 0.000000 -11.678419 0.982228 -8.487802 11.006788 -0.567348 32.849850 -9.842128 -23.922557 22.384606 0.000000 0.000000 0.000000 1.202565 -0.294841 23.082222 -3.557025 1.175927 -25.010736 -1.747024 2.559048 28.544120 5.442849 -2.626198 -28.324964 0.000000 0.000000 0.000000 -15.405802 -12.275510 7.380188 -29.792297 -19.945560 -1.406791 -3.606808 -44.586768 4.184443 0.000000 0.000000 0.000000 24.783660 1.795959 -3.357958 47.543027 8.688622 -2.917493 19.149800 33.431729 6.308561 0.000000 0.000000 0.000000 
0.057977 0.922918 0.126501 -2.120975 -19.813195 2.622678 8.380904 0.423878 -16.206772 -8.857596 3.032948 16.794813 11.614492 21.804490 10.385799 0.000000 0.000000 0.000000 -11.492555 1.058809 -11.417657 11.803234 -0.615246 33.444267 -12.521361 -27.638216 19.894076 0.000000 0.000000 0.000000 0.913698 -0.068763 25.239568 -3.098262 1.063357 -25.702005 -2.270975 1.721225 28.449083 4.993744 -2.527328 -29.106049 0.000000 0.000000 0.000000 -14.565309 -12.825398 7.758214 -26.640699 -22.805689 -0.927210 -0.263215 -49.129338 3.268135 0.000000 0.000000 0.000000 25.202490 1.966373 -3.848390 46.743217 7.211520 -3.242449 20.035620 34.209046 6.569292 0.000000 0.000000 0.000000 
0.064332 0.925085 0.148669 -2.621544 -19.659465 2.543072 7.996420 0.261907 -13.600653 -8.985285 2.842542 14.927029 11.570046 22.108361 8.969082 0.000000 0.000000 0.000000 -10.910565 1.142235 -13.943347 12.826260 -0.982803 33.105892 -10.280456 -24.464481 8.839469 0.000000 0.000000 0.000000 1.073792 -0.100279 25.743135 -2.841275 1.010259 -25.914060 -2.825374 0.535871 28.278606 4.358356 -2.424482 -28.505888 0.000000 0.000000 0.000000 -14.361706 -13.496006 8.250097 -23.298337 -25.171506 -0.707928 6.062824 -51.289700 0.457069 0.000000 0.000000 0.000000 24.990403 2.042365 -4.141401 47.050196 6.456349 -3.442724 20.832156 33.567246 6.548525 0.000000 0.000000 0.000000 
0.067906 0.927269 0.170288 -3.092896 -19.414008 2.261574 7.767871 0.162099 -10.573257 -9.082898 2.597788 12.707450 11.387208 22.169970 7.810378 0.000000 0.000000 0.000000 -10.138781 1.239667 -15.874163 13.304969 -1.227095 31.506526 -9.174417 -22.066318 3.390817 0.000000 0.000000 0.000000 0.740471 -0.003273 26.606344 -1.868082 0.792833 -25.972086 -3.298438 0.414179 28.291442 4.838820 -2.671374 -28.430669 0.000000 0.000000 0.000000 -13.287882 -14.828465 8.607846 -22.946272 -27.259885 -0.313412 9.999266 -52.733746 -1.438148 0.000000 0.000000 0.000000 25.586957 1.811326 -4.332648 46.508707 5.781152 -3.645458 21.307610 34.295984 6.868577 0.000000 0.000000 0.000000 
0.068562 0.928399 0.191746 -3.657557 -18.412531 2.161361 7.408842 0.079542 -8.122228 -8.311729 2.159957 11.134064 10.905720 21.741867 6.367920 0.000000 0.000000 0.000000 -8.942905 1.383558 -17.730701 12.391424 -1.206528 24.956411 -6.188576 -15.828168 2.524220 0.000000 0.000000 0.000000 1.002221 -0.123850 27.187016 -2.058848 0.835245 -25.789742 -3.395185 -0.975612 27.718880 4.874793 -2.843117 -27.839277 0.000000 0.000000 0.000000 -14.515503 -14.841336 9.018822 -21.687808 -28.783425 -0.217344 12.744606 -51.551703 -2.728626 0.000000 0.000000 0.000000 25.593516 2.146459 -4.420601 47.179578 5.590704 -3.627540 21.275257 34.011190 6.714464 0.000000 0.000000 0.000000 
0.066401 0.929648 0.214060 -3.646389 -18.776072 1.875508 6.886634 0.054346 -6.111569 -8.059413 2.080096 10.831452 11.021090 22.067135 6.256653 0.000000 0.000000 0.000000 -7.747932 1.592363 -19.132926 10.192098 -0.797589 16.370485 0.472949 -1.835220 4.087972 0.000000 0.000000 0.000000 0.818955 -0.022007 27.761528 -2.202292 0.892427 -26.570658 -3.386331 -1.456537 28.268625 4.269381 -2.726014 -27.204290 0.000000 0.000000 0.000000 -14.933359 -15.179124 9.434114 -22.427677 -28.604214 -0.237466 14.884097 -51.161071 -3.627196 0.000000 0.000000 0.000000 25.033092 2.119685 -4.520543 47.707395 5.631574 -3.701786 21.458117 34.722808 6.862716 0.000000 0.000000 0.000000 
